<mxGraphModel dx="0" dy="0" grid="1" gridSize="10" guides="1" tooltips="1" connect="1" arrows="1" fold="1" page="0" pageScale="1" background="none" math="0" shadow="0">
  <root>
    <mxCell id="0" />
    <mxCell id="1" parent="0" />
    <mxCell id="node9" parent="1" vertex="1" value="&lt;p style=&quot;margin:0px;margin-top:4px;text-align:center;&quot;&gt;&lt;b&gt;Archivo&lt;/b&gt;&lt;/p&gt;&lt;hr size=&quot;1&quot;/&gt;&lt;p style=&quot;margin:0 0 0 4px;line-height:1.6;&quot;&gt;+ DOT_TREE: String&lt;br/&gt;+ DOT_CORTA: String&lt;br/&gt;+ DOT_CAMINOS: String&lt;br/&gt;+ RUTA_IMAGEN_MAPA: String&lt;br/&gt;+ RUTA_ARCHIVO_DOT: String&lt;br/&gt;+ IMG_CAMINO_CORTO: String&lt;br/&gt;- choser: JFileChooser&lt;br/&gt;+ IMG_TREE: String&lt;br/&gt;+ IMG_CAMINOS: String&lt;br/&gt;+ RUTA_MANUAL: String&lt;/p&gt;&lt;hr size=&quot;1&quot;/&gt;&lt;p style=&quot;margin:0 0 0 4px;line-height:1.6;&quot;&gt;+ writeFile(String, String): void&lt;br/&gt;+ readFile(String): String&lt;br/&gt;+ openFile(String): void&lt;br/&gt;+ pathChoserOpen(): String&lt;/p&gt;" style="verticalAlign=top;align=left;overflow=fill;fontSize=14;fontFamily=Helvetica;html=1;rounded=0;shadow=0;comic=0;labelBackgroundColor=none;strokeWidth=1;">
      <mxGeometry x="3984" y="921" width="201" height="369" as="geometry" />
    </mxCell>
    <mxCell id="node16" parent="1" vertex="1" value="&lt;p style=&quot;margin:0px;margin-top:4px;text-align:center;&quot;&gt;&lt;b&gt;Arista&lt;/b&gt;&lt;/p&gt;&lt;hr size=&quot;1&quot;/&gt;&lt;p style=&quot;margin:0 0 0 4px;line-height:1.6;&quot;&gt;- origen: String&lt;br/&gt;~ indiceDestino: int&lt;br/&gt;- tiempoApie: int&lt;br/&gt;~ peso: int&lt;br/&gt;- destino: String&lt;br/&gt;- tiempoVehiculo: int&lt;br/&gt;- caminable: boolean&lt;br/&gt;- cantidadGasolina: int&lt;br/&gt;- desgaste: int&lt;/p&gt;&lt;hr size=&quot;1&quot;/&gt;&lt;p style=&quot;margin:0 0 0 4px;line-height:1.6;&quot;&gt;+ setDesgaste(int): void&lt;br/&gt;+ isCaminable(): boolean&lt;br/&gt;+ getIndiceDestino(): int&lt;br/&gt;+ getTiempoVehiculo(): int&lt;br/&gt;+ getCantidadGasolina(): int&lt;br/&gt;+ getDestino(): String&lt;br/&gt;+ setOrigen(String): void&lt;br/&gt;+ setIndiceDestino(int): void&lt;br/&gt;+ getDesgaste(): int&lt;br/&gt;+ setDestino(String): void&lt;br/&gt;+ getTiempoApie(): int&lt;br/&gt;+ setCantidadGasolina(int): void&lt;br/&gt;+ hashCode(): int&lt;br/&gt;+ setTiempoVehiculo(int): void&lt;br/&gt;+ equals(Object): boolean&lt;br/&gt;+ getOrigen(): String&lt;br/&gt;+ getPeso(): int&lt;br/&gt;+ setCaminable(boolean): void&lt;br/&gt;+ toString(): String&lt;br/&gt;+ setTiempoApie(int): void&lt;br/&gt;+ setPeso(int): void&lt;/p&gt;" style="verticalAlign=top;align=left;overflow=fill;fontSize=14;fontFamily=Helvetica;html=1;rounded=0;shadow=0;comic=0;labelBackgroundColor=none;strokeWidth=1;">
      <mxGeometry x="416" y="729" width="208" height="753" as="geometry" />
    </mxCell>
    <mxCell id="node1" parent="1" vertex="1" value="&lt;p style=&quot;margin:0px;margin-top:4px;text-align:center;&quot;&gt;&lt;b&gt;GrafoDirigido&lt;/b&gt;&lt;/p&gt;&lt;hr size=&quot;1&quot;/&gt;&lt;p style=&quot;margin:0 0 0 4px;line-height:1.6;&quot;&gt;- nodos: List&amp;lt;Nodo&amp;gt;&lt;br/&gt;- aristas: List&amp;lt;List&amp;lt;Arista&amp;gt;&amp;gt;&lt;br/&gt;- rutaMasCortaIndices: List&amp;lt;Integer&amp;gt;&lt;/p&gt;&lt;hr size=&quot;1&quot;/&gt;&lt;p style=&quot;margin:0 0 0 4px;line-height:1.6;&quot;&gt;+ obtenerRutaMasCorta(String, String): List&amp;lt;Ruta&amp;gt;&lt;br/&gt;+ mostrarCaminos(String, String, String): String&lt;br/&gt;- encontrarCaminos(String, String, List&amp;lt;String&amp;gt;, List&amp;lt;List&amp;lt;String&amp;gt;&amp;gt;): void&lt;br/&gt;+ agregarVertice(String): void&lt;br/&gt;- encontrarRutaMasCorta(String, String): void&lt;br/&gt;+ getAristas(): List&amp;lt;List&amp;lt;Arista&amp;gt;&amp;gt;&lt;br/&gt;- calcularPesoArista(int): double&lt;br/&gt;- encontrarRutasDobleVia(String, String, List&amp;lt;Arista&amp;gt;, List&amp;lt;Ruta&amp;gt;): void&lt;br/&gt;+ agregarArista(String, String, Arista): void&lt;br/&gt;+ getNodos(): List&amp;lt;Nodo&amp;gt;&lt;br/&gt;- encontrarTodasLasRutasRecursivo(int, int, List&amp;lt;Arista&amp;gt;, List&amp;lt;Ruta&amp;gt;, boolean[]): void&lt;br/&gt;- encontrarCaminos(String, String): void&lt;br/&gt;- verAristas(): void&lt;br/&gt;- buscarCaminosRecursivo(int, int, List&amp;lt;Integer&amp;gt;, boolean[]): void&lt;br/&gt;+ getRutaMasCortaIndices(): List&amp;lt;Integer&amp;gt;&lt;br/&gt;- encontrarIndiceNodo(String): int&lt;br/&gt;+ mostrarGrafo(): String&lt;br/&gt;+ getRutaCorta(String, String): Ruta&lt;br/&gt;+ mostrarRutaMasCorta(String, String, String): String&lt;br/&gt;+ obtenerRutasDobleVia(String, String): List&amp;lt;Ruta&amp;gt;&lt;br/&gt;+ obtenerTodasLasRutas(String, String): List&amp;lt;Ruta&amp;gt;&lt;br/&gt;+ obtenerPosiblesCaminos(String, String): List&amp;lt;List&amp;lt;String&amp;gt;&amp;gt;&lt;/p&gt;" style="verticalAlign=top;align=left;overflow=fill;fontSize=14;fontFamily=Helvetica;html=1;rounded=0;shadow=0;comic=0;labelBackgroundColor=none;strokeWidth=1;">
      <mxGeometry x="1310" y="789" width="395" height="633" as="geometry" />
    </mxCell>
    <mxCell id="node15" parent="1" vertex="1" value="&lt;p style=&quot;margin:0px;margin-top:4px;text-align:center;&quot;&gt;&lt;b&gt;Graphiz&lt;/b&gt;&lt;/p&gt;&lt;hr size=&quot;1&quot;/&gt;&lt;p style=&quot;margin:0 0 0 4px;line-height:1.6;&quot;&gt;- archivo: Archivo&lt;/p&gt;&lt;hr size=&quot;1&quot;/&gt;&lt;p style=&quot;margin:0 0 0 4px;line-height:1.6;&quot;&gt;+ dibujar(String, String, String): void&lt;/p&gt;" style="verticalAlign=top;align=left;overflow=fill;fontSize=14;fontFamily=Helvetica;html=1;rounded=0;shadow=0;comic=0;labelBackgroundColor=none;strokeWidth=1;">
      <mxGeometry x="3704" y="1065" width="230" height="87" as="geometry" />
    </mxCell>
    <mxCell id="node10" parent="1" vertex="1" value="&lt;p style=&quot;margin:0px;margin-top:4px;text-align:center;&quot;&gt;&lt;b&gt;Main&lt;/b&gt;&lt;/p&gt;&lt;hr size=&quot;1&quot;/&gt;&lt;p style=&quot;margin:0 0 0 4px;line-height:1.6;&quot;&gt;+ main(String[]): void&lt;/p&gt;" style="verticalAlign=top;align=left;overflow=fill;fontSize=14;fontFamily=Helvetica;html=1;rounded=0;shadow=0;comic=0;labelBackgroundColor=none;strokeWidth=1;">
      <mxGeometry x="2041" y="1078" width="153" height="60" as="geometry" />
    </mxCell>
    <mxCell id="node14" parent="1" vertex="1" value="&lt;p style=&quot;margin:0px;margin-top:4px;text-align:center;&quot;&gt;&lt;b&gt;ManejoDatos&lt;/b&gt;&lt;/p&gt;&lt;hr size=&quot;1&quot;/&gt;&lt;p style=&quot;margin:0 0 0 4px;line-height:1.6;&quot;&gt;- lugares: List&amp;lt;Nodo&amp;gt;&lt;br/&gt;- traficoDatos: List&amp;lt;Trafico&amp;gt;&lt;br/&gt;- mensajesError: List&amp;lt;String&amp;gt;&lt;br/&gt;- aristasDatos: List&amp;lt;Arista&amp;gt;&lt;br/&gt;- archivo: Archivo&lt;/p&gt;&lt;hr size=&quot;1&quot;/&gt;&lt;p style=&quot;margin:0 0 0 4px;line-height:1.6;&quot;&gt;+ processDataTrafico(String): void&lt;br/&gt;+ reinicar(): void&lt;br/&gt;+ getArchivo(): Archivo&lt;br/&gt;+ getMensaje(): String&lt;br/&gt;+ getLugares(): List&amp;lt;Nodo&amp;gt;&lt;br/&gt;- existNode(String): boolean&lt;br/&gt;+ getMensajesError(): List&amp;lt;String&amp;gt;&lt;br/&gt;- procesarLugares(): void&lt;br/&gt;+ processData(String): void&lt;br/&gt;+ getAristasDatos(): List&amp;lt;Arista&amp;gt;&lt;br/&gt;+ getTraficoDatos(): List&amp;lt;Trafico&amp;gt;&lt;/p&gt;" style="verticalAlign=top;align=left;overflow=fill;fontSize=14;fontFamily=Helvetica;html=1;rounded=0;shadow=0;comic=0;labelBackgroundColor=none;strokeWidth=1;">
      <mxGeometry x="2224" y="897" width="221" height="417" as="geometry" />
    </mxCell>
    <mxCell id="node5" parent="1" vertex="1" value="&lt;p style=&quot;margin:0px;margin-top:4px;text-align:center;&quot;&gt;&lt;b&gt;Nodo&lt;/b&gt;&lt;/p&gt;&lt;hr size=&quot;1&quot;/&gt;&lt;p style=&quot;margin:0 0 0 4px;line-height:1.6;&quot;&gt;~ nombre: String&lt;br/&gt;~ distancia: double&lt;br/&gt;~ indice: int&lt;/p&gt;&lt;hr size=&quot;1&quot;/&gt;&lt;p style=&quot;margin:0 0 0 4px;line-height:1.6;&quot;&gt;+ hashCode(): int&lt;br/&gt;+ setIndice(int): void&lt;br/&gt;+ toString(): String&lt;br/&gt;+ setDistancia(double): void&lt;br/&gt;+ setNombre(String): void&lt;br/&gt;+ getDistancia(): double&lt;br/&gt;+ equals(Object): boolean&lt;br/&gt;# canEqual(Object): boolean&lt;br/&gt;+ getIndice(): int&lt;br/&gt;+ compareTo(Nodo): int&lt;br/&gt;+ getNombre(): String&lt;/p&gt;" style="verticalAlign=top;align=left;overflow=fill;fontSize=14;fontFamily=Helvetica;html=1;rounded=0;shadow=0;comic=0;labelBackgroundColor=none;strokeWidth=1;">
      <mxGeometry x="654" y="921" width="189" height="369" as="geometry" />
    </mxCell>
    <mxCell id="node6" parent="1" vertex="1" value="&lt;p style=&quot;margin:0px;margin-top:4px;text-align:center;&quot;&gt;&lt;b&gt;NodoTree&lt;/b&gt;&lt;/p&gt;&lt;hr size=&quot;1&quot;/&gt;&lt;p style=&quot;margin:0 0 0 4px;line-height:1.6;&quot;&gt;- hijos: ArrayList&amp;lt;NodoTree&amp;gt;&lt;br/&gt;- claves: ArrayList&amp;lt;Integer&amp;gt;&lt;br/&gt;- esHoja: boolean&lt;/p&gt;&lt;hr size=&quot;1&quot;/&gt;&lt;p style=&quot;margin:0 0 0 4px;line-height:1.6;&quot;&gt;+ isEsHoja(): boolean&lt;br/&gt;+ getHijos(): ArrayList&amp;lt;NodoTree&amp;gt;&lt;br/&gt;+ getClaves(): ArrayList&amp;lt;Integer&amp;gt;&lt;/p&gt;" style="verticalAlign=top;align=left;overflow=fill;fontSize=14;fontFamily=Helvetica;html=1;rounded=0;shadow=0;comic=0;labelBackgroundColor=none;strokeWidth=1;">
      <mxGeometry x="4215" y="1017" width="224" height="177" as="geometry" />
    </mxCell>
    <mxCell id="node4" parent="1" vertex="1" value="&lt;p style=&quot;margin:0px;margin-top:4px;text-align:center;&quot;&gt;&lt;b&gt;Ruta&lt;/b&gt;&lt;/p&gt;&lt;hr size=&quot;1&quot;/&gt;&lt;p style=&quot;margin:0 0 0 4px;line-height:1.6;&quot;&gt;~ nombreNodo: String&lt;br/&gt;~ desgasteTotal: double&lt;br/&gt;- id: int&lt;br/&gt;~ rapidezPromedioApie: double&lt;br/&gt;+ ID: int&lt;br/&gt;~ distanciaTotal: double&lt;br/&gt;~ aristas: List&amp;lt;Arista&amp;gt;&lt;br/&gt;~ desgasteDistanciaTotal: double&lt;/p&gt;&lt;hr size=&quot;1&quot;/&gt;&lt;p style=&quot;margin:0 0 0 4px;line-height:1.6;&quot;&gt;- calTiempoTotalApie(): double&lt;br/&gt;- calRapidezPromedioApie(): double&lt;br/&gt;+ toString(): String&lt;br/&gt;+ getDesgasteDistanciaTotal(): double&lt;br/&gt;- calDesgasteDistanciaTotal(): double&lt;br/&gt;+ getNombreNodo(): String&lt;br/&gt;- calDesgasteTotal(): double&lt;br/&gt;+ getDesgasteTotal(): double&lt;br/&gt;+ getAristas(): List&amp;lt;Arista&amp;gt;&lt;br/&gt;+ getRapidezPromedioApie(): double&lt;br/&gt;+ getId(): int&lt;br/&gt;- calDistanciaTotal(): double&lt;br/&gt;+ getDistanciaTotal(): double&lt;/p&gt;" style="verticalAlign=top;align=left;overflow=fill;fontSize=14;fontFamily=Helvetica;html=1;rounded=0;shadow=0;comic=0;labelBackgroundColor=none;strokeWidth=1;">
      <mxGeometry x="124" y="837" width="242" height="537" as="geometry" />
    </mxCell>
    <mxCell id="node3" parent="1" vertex="1" value="&lt;p style=&quot;margin:0px;margin-top:4px;text-align:center;&quot;&gt;&lt;b&gt;SettingHour&lt;/b&gt;&lt;/p&gt;&lt;hr size=&quot;1&quot;/&gt;&lt;p style=&quot;margin:0 0 0 4px;line-height:1.6;&quot;&gt;- jSpinner2: JSpinner&lt;br/&gt;- jSpinner1: JSpinner&lt;br/&gt;- jSpinner3: JSpinner&lt;/p&gt;&lt;hr size=&quot;1&quot;/&gt;&lt;p style=&quot;margin:0 0 0 4px;line-height:1.6;&quot;&gt;- initComponents(): void&lt;/p&gt;" style="verticalAlign=top;align=left;overflow=fill;fontSize=14;fontFamily=Helvetica;html=1;rounded=0;shadow=0;comic=0;labelBackgroundColor=none;strokeWidth=1;">
      <mxGeometry x="-76" y="1041" width="170" height="139" as="geometry" />
    </mxCell>
    <mxCell id="node8" parent="1" vertex="1" value="&lt;p style=&quot;margin:0px;margin-top:4px;text-align:center;&quot;&gt;&lt;b&gt;TableRutas&lt;/b&gt;&lt;/p&gt;&lt;hr size=&quot;1&quot;/&gt;&lt;p style=&quot;margin:0 0 0 4px;line-height:1.6;&quot;&gt;- grafo: GrafoDirigido&lt;br/&gt;- utiles: Utiles&lt;br/&gt;- jPanel1: JPanel&lt;br/&gt;- param: int&lt;br/&gt;- model: DefaultTableModel&lt;br/&gt;- jTabbedPane1: JTabbedPane&lt;br/&gt;- rutas: List&amp;lt;Ruta&amp;gt;&lt;br/&gt;- jScrollPane2: JScrollPane&lt;br/&gt;- destino: String&lt;br/&gt;- tableRutas: RSTableMetro&lt;br/&gt;- jPanel2: JPanel&lt;br/&gt;- labelHeader1: LabelHeader&lt;br/&gt;- tableDetalleRutas: RSTableMetro&lt;br/&gt;- origen: String&lt;br/&gt;- jScrollPane1: JScrollPane&lt;/p&gt;&lt;hr size=&quot;1&quot;/&gt;&lt;p style=&quot;margin:0 0 0 4px;line-height:1.6;&quot;&gt;+ getLabelHora(): JLabel&lt;br/&gt;- setTable(): void&lt;br/&gt;- initComponents(): void&lt;br/&gt;- setTableDetalleRuta(): void&lt;br/&gt;- setTableDetalleRutaVehiculo(): void&lt;/p&gt;" style="verticalAlign=top;align=left;overflow=fill;fontSize=14;fontFamily=Helvetica;html=1;rounded=0;shadow=0;comic=0;labelBackgroundColor=none;strokeWidth=1;">
      <mxGeometry x="1021" y="849" width="239" height="513" as="geometry" />
    </mxCell>
    <mxCell id="node7" parent="1" vertex="1" value="&lt;p style=&quot;margin:0px;margin-top:4px;text-align:center;&quot;&gt;&lt;b&gt;Trafico&lt;/b&gt;&lt;/p&gt;&lt;hr size=&quot;1&quot;/&gt;&lt;p style=&quot;margin:0 0 0 4px;line-height:1.6;&quot;&gt;- horaFin: int&lt;br/&gt;- probabilidad: int&lt;br/&gt;- origen: String&lt;br/&gt;- destino: String&lt;br/&gt;- horaInicio: int&lt;/p&gt;&lt;hr size=&quot;1&quot;/&gt;&lt;p style=&quot;margin:0 0 0 4px;line-height:1.6;&quot;&gt;+ setDestino(String): void&lt;br/&gt;+ getOrigen(): String&lt;br/&gt;# canEqual(Object): boolean&lt;br/&gt;+ builder(): TraficoBuilder&lt;br/&gt;+ hashCode(): int&lt;br/&gt;+ getDestino(): String&lt;br/&gt;+ setHoraFin(int): void&lt;br/&gt;+ getProbabilidad(): int&lt;br/&gt;+ setHoraInicio(int): void&lt;br/&gt;+ equals(Object): boolean&lt;br/&gt;+ setProbabilidad(int): void&lt;br/&gt;+ getHoraInicio(): int&lt;br/&gt;+ getHoraFin(): int&lt;br/&gt;+ setOrigen(String): void&lt;br/&gt;+ toString(): String&lt;/p&gt;" style="verticalAlign=top;align=left;overflow=fill;fontSize=14;fontFamily=Helvetica;html=1;rounded=0;shadow=0;comic=0;labelBackgroundColor=none;strokeWidth=1;">
      <mxGeometry x="3215" y="849" width="189" height="513" as="geometry" />
    </mxCell>
    <mxCell id="node17" parent="1" vertex="1" value="&lt;p style=&quot;margin:0px;margin-top:4px;text-align:center;&quot;&gt;&lt;b&gt;TraficoBuilder&lt;/b&gt;&lt;/p&gt;&lt;hr size=&quot;1&quot;/&gt;&lt;p style=&quot;margin:0 0 0 4px;line-height:1.6;&quot;&gt;- horaFin: int&lt;br/&gt;- origen: String&lt;br/&gt;- horaInicio: int&lt;br/&gt;- destino: String&lt;br/&gt;- probabilidad: int&lt;/p&gt;&lt;hr size=&quot;1&quot;/&gt;&lt;p style=&quot;margin:0 0 0 4px;line-height:1.6;&quot;&gt;+ probabilidad(int): TraficoBuilder&lt;br/&gt;+ build(): Trafico&lt;br/&gt;+ origen(String): TraficoBuilder&lt;br/&gt;+ horaFin(int): TraficoBuilder&lt;br/&gt;+ toString(): String&lt;br/&gt;+ destino(String): TraficoBuilder&lt;br/&gt;+ horaInicio(int): TraficoBuilder&lt;/p&gt;" style="verticalAlign=top;align=left;overflow=fill;fontSize=14;fontFamily=Helvetica;html=1;rounded=0;shadow=0;comic=0;labelBackgroundColor=none;strokeWidth=1;">
      <mxGeometry x="3454" y="945" width="220" height="321" as="geometry" />
    </mxCell>
    <mxCell id="node12" parent="1" vertex="1" value="&lt;p style=&quot;margin:0px;margin-top:4px;text-align:center;&quot;&gt;&lt;b&gt;TravelError&lt;/b&gt;&lt;/p&gt;&lt;hr size=&quot;1&quot;/&gt;" style="verticalAlign=top;align=left;overflow=fill;fontSize=14;fontFamily=Helvetica;html=1;rounded=0;shadow=0;comic=0;labelBackgroundColor=none;strokeWidth=1;">
      <mxGeometry x="873" y="1091" width="118" height="31" as="geometry" />
    </mxCell>
    <mxCell id="node2" parent="1" vertex="1" value="&lt;p style=&quot;margin:0px;margin-top:4px;text-align:center;&quot;&gt;&lt;b&gt;TravelGt&lt;/b&gt;&lt;/p&gt;&lt;hr size=&quot;1&quot;/&gt;&lt;p style=&quot;margin:0 0 0 4px;line-height:1.6;&quot;&gt;- scrollUbicacion: JScrollPane&lt;br/&gt;- scroolMasCorto: JScrollPane&lt;br/&gt;- labelHora: LabelHeader&lt;br/&gt;- labelCaminosCorto: JLabel&lt;br/&gt;- btnMoverse: ButtonAction&lt;br/&gt;- jScrollPane1: JScrollPane&lt;br/&gt;- panelCurves1: PanelCurves&lt;br/&gt;- menuCargar: JMenuItem&lt;br/&gt;- jPanel4: JPanel&lt;br/&gt;- reloj: Reloj&lt;br/&gt;- jPanel1: JPanel&lt;br/&gt;- labelRect2: LabelRect&lt;br/&gt;- labelRect3: LabelRect&lt;br/&gt;- comboOrigen: ComboBoxRound&lt;br/&gt;- labelHeader1: LabelHeader&lt;br/&gt;- utiles: Utiles&lt;br/&gt;- grafoDirigido: GrafoDirigido&lt;br/&gt;~ segundos: int&lt;br/&gt;- listRutas: List&amp;lt;Ruta&amp;gt;&lt;br/&gt;- calendar: Calendar&lt;br/&gt;- hiloReloj: Thread&lt;br/&gt;- btnReiniciar: ButtonAction&lt;br/&gt;+ RECARGA: String&lt;br/&gt;- checkPie: RSCheckBox&lt;br/&gt;- scroolMapa: JScrollPane&lt;br/&gt;~ minutos: int&lt;br/&gt;- manejoDatos: ManejoDatos&lt;br/&gt;- itemManual: JMenuItem&lt;br/&gt;- jPanel3: JPanel&lt;br/&gt;- labelUbicacion: JLabel&lt;br/&gt;- destino: String&lt;br/&gt;- labelStop: JLabel&lt;br/&gt;- comboDestino: ComboBoxRound&lt;br/&gt;- jMenu1: JMenu&lt;br/&gt;- labelHeader3: LabelHeader&lt;br/&gt;- comboRutas: RSComboBoxMaterial&lt;br/&gt;- itemAcercaDe: JMenuItem&lt;br/&gt;- btnGenerarRutas: ButtonAction&lt;br/&gt;~ hora: int&lt;br/&gt;- btnRutas: RSButtonMaterialGradientOne&lt;br/&gt;- menuCargarTrafico: JMenuItem&lt;br/&gt;- origen: String&lt;br/&gt;- labelTree: JLabel&lt;br/&gt;- jPanel5: JPanel&lt;br/&gt;- labelSetting: JLabel&lt;br/&gt;- pages: JTabbedPane&lt;br/&gt;- labelMapa: JLabel&lt;br/&gt;- jPanel2: JPanel&lt;br/&gt;- labelHeader2: LabelHeader&lt;br/&gt;- seguir: boolean&lt;br/&gt;- jMenuBar1: JMenuBar&lt;br/&gt;- aPie: boolean&lt;br/&gt;- checkVehiculo: RSCheckBox&lt;br/&gt;- treeB: TreeB&lt;br/&gt;- archivo: Archivo&lt;br/&gt;- buttonAction1: ButtonAction&lt;br/&gt;- menuExit: JMenu&lt;br/&gt;- jMenu2: JMenu&lt;br/&gt;- graphiz: Graphiz&lt;br/&gt;- jToolBar1: JToolBar&lt;/p&gt;&lt;hr size=&quot;1&quot;/&gt;&lt;p style=&quot;margin:0 0 0 4px;line-height:1.6;&quot;&gt;- labelStopMouseClicked(MouseEvent): void&lt;br/&gt;- btnReiniciarActionPerformed(ActionEvent): void&lt;br/&gt;+ getLabelHora(): LabelHeader&lt;br/&gt;- comboRutasActionPerformed(ActionEvent): void&lt;br/&gt;- labelUbicacionMouseClicked(MouseEvent): void&lt;br/&gt;- btnRutasActionPerformed(ActionEvent): void&lt;br/&gt;- labelMapaMouseClicked(MouseEvent): void&lt;br/&gt;+ isSeguir(): boolean&lt;br/&gt;- labelTreeMouseClicked(MouseEvent): void&lt;br/&gt;- labelCaminosCortoMouseClicked(MouseEvent): void&lt;br/&gt;- pararReloj(): void&lt;br/&gt;+ ponerImagenMapa(String, JLabel): void&lt;br/&gt;- menuCargarActionPerformed(ActionEvent): void&lt;br/&gt;- menuExitMouseClicked(MouseEvent): void&lt;br/&gt;+ insertDataToGraph(): void&lt;br/&gt;- btnGenerarRutasActionPerformed(ActionEvent): void&lt;br/&gt;- btnMoverseActionPerformed(ActionEvent): void&lt;br/&gt;- setIcons(): void&lt;br/&gt;- generarRuta(): void&lt;br/&gt;- activarMoverse(): void&lt;br/&gt;- labelRect2MouseClicked(MouseEvent): void&lt;br/&gt;- menuExitActionPerformed(ActionEvent): void&lt;br/&gt;- buttonAction1ActionPerformed(ActionEvent): void&lt;br/&gt;- comboOrigenActionPerformed(ActionEvent): void&lt;br/&gt;- labelRect3MouseClicked(MouseEvent): void&lt;br/&gt;- comboDestinoActionPerformed(ActionEvent): void&lt;br/&gt;- pagesMouseClicked(MouseEvent): void&lt;br/&gt;- bloquearMoverse(): void&lt;br/&gt;- initComponents(): void&lt;br/&gt;- itemManualActionPerformed(ActionEvent): void&lt;br/&gt;- llenarComboRutas(): void&lt;br/&gt;- iniciarReloj(): void&lt;/p&gt;" style="verticalAlign=top;align=left;overflow=fill;fontSize=14;fontFamily=Helvetica;html=1;rounded=0;shadow=0;comic=0;labelBackgroundColor=none;strokeWidth=1;">
      <mxGeometry x="2857" y="-15" width="328" height="2241" as="geometry" />
    </mxCell>
    <mxCell id="node13" parent="1" vertex="1" value="&lt;p style=&quot;margin:0px;margin-top:4px;text-align:center;&quot;&gt;&lt;b&gt;TreeB&lt;/b&gt;&lt;/p&gt;&lt;hr size=&quot;1&quot;/&gt;&lt;p style=&quot;margin:0 0 0 4px;line-height:1.6;&quot;&gt;- raiz: NodoTree&lt;br/&gt;- tamaño: int&lt;br/&gt;- caminosPosibles: List&amp;lt;List&amp;lt;String&amp;gt;&amp;gt;&lt;/p&gt;&lt;hr size=&quot;1&quot;/&gt;&lt;p style=&quot;margin:0 0 0 4px;line-height:1.6;&quot;&gt;- dividirHijo(NodoTree, int): void&lt;br/&gt;- aGraphviz(NodoTree): String&lt;br/&gt;+ setCaminos(List&amp;lt;List&amp;lt;String&amp;gt;&amp;gt;): void&lt;br/&gt;+ graficaList(): String&lt;br/&gt;- contentList(List&amp;lt;String&amp;gt;): String&lt;br/&gt;+ insertar(int): void&lt;br/&gt;+ grafica(): String&lt;br/&gt;- aGraphvizList(NodoTree): String&lt;br/&gt;- insertarNoLleno(NodoTree, int): void&lt;/p&gt;" style="verticalAlign=top;align=left;overflow=fill;fontSize=14;fontFamily=Helvetica;html=1;rounded=0;shadow=0;comic=0;labelBackgroundColor=none;strokeWidth=1;">
      <mxGeometry x="4489" y="945" width="249" height="321" as="geometry" />
    </mxCell>
    <mxCell id="node0" parent="1" vertex="1" value="&lt;p style=&quot;margin:0px;margin-top:4px;text-align:center;&quot;&gt;&lt;b&gt;Utiles&lt;/b&gt;&lt;/p&gt;&lt;hr size=&quot;1&quot;/&gt;&lt;p style=&quot;margin:0 0 0 4px;line-height:1.6;&quot;&gt;- TAM: int&lt;/p&gt;&lt;hr size=&quot;1&quot;/&gt;&lt;p style=&quot;margin:0 0 0 4px;line-height:1.6;&quot;&gt;+ setIconMenuItem(JMenuItem, String): void&lt;br/&gt;+ getIcon(String, int): ImageIcon&lt;br/&gt;+ setIconLabel(JLabel, String): void&lt;br/&gt;+ setIconLabel(JLabel, String, int, int): void&lt;br/&gt;+ getRuta(List&amp;lt;Arista&amp;gt;, String, String): String&lt;/p&gt;" style="verticalAlign=top;align=left;overflow=fill;fontSize=14;fontFamily=Helvetica;html=1;rounded=0;shadow=0;comic=0;labelBackgroundColor=none;strokeWidth=1;">
      <mxGeometry x="1735" y="1017" width="276" height="177" as="geometry" />
    </mxCell>
    <mxCell id="node11" parent="1" vertex="1" value="&lt;p style=&quot;margin:0px;margin-top:4px;text-align:center;&quot;&gt;&lt;b&gt;VerificarDatos&lt;/b&gt;&lt;/p&gt;&lt;hr size=&quot;1&quot;/&gt;&lt;p style=&quot;margin:0 0 0 4px;line-height:1.6;&quot;&gt;- buttonSeven1: ButtonSeven&lt;br/&gt;- jScrollPane1: JScrollPane&lt;br/&gt;- travelGt: TravelGt&lt;br/&gt;- buttonSeven2: ButtonSeven&lt;br/&gt;- jSplitPane1: JSplitPane&lt;br/&gt;- param: int&lt;br/&gt;- jScrollPane2: JScrollPane&lt;br/&gt;- textArea: JTextArea&lt;br/&gt;- manejoDatos: ManejoDatos&lt;br/&gt;- console: JTextArea&lt;/p&gt;&lt;hr size=&quot;1&quot;/&gt;&lt;p style=&quot;margin:0 0 0 4px;line-height:1.6;&quot;&gt;- initComponents(): void&lt;br/&gt;- formWindowClosing(WindowEvent): void&lt;br/&gt;- buttonSeven2ActionPerformed(ActionEvent): void&lt;br/&gt;- buttonSeven1ActionPerformed(ActionEvent): void&lt;br/&gt;- tipoProceso(int, String): void&lt;/p&gt;" style="verticalAlign=top;align=left;overflow=fill;fontSize=14;fontFamily=Helvetica;html=1;rounded=0;shadow=0;comic=0;labelBackgroundColor=none;strokeWidth=1;">
      <mxGeometry x="2495" y="909" width="312" height="393" as="geometry" />
    </mxCell>
    <mxCell id="edge19" edge="1" value="" parent="1" source="node1" target="node5" style="html=1;rounded=1;edgeStyle=orthogonalEdgeStyle;dashed=0;startArrow=diamondThinstartSize=12;endArrow=openThin;endSize=12;strokeColor=#595959;exitX=0.250;exitY=0.000;exitDx=0;exitDy=0;entryX=0.500;entryY=0.000;entryDx=0;entryDy=0;">
      <mxGeometry width="50" height="50" relative="1" as="geometry">
        <Array as="points">
          <mxPoint x="1409" y="709" />
          <mxPoint x="749" y="709" />
        </Array>
      </mxGeometry>
    </mxCell>
    <mxCell id="label114" parent="edge19" vertex="1" connectable="0" value="1" style="edgeLabel;resizable=0;html=1;align=left;verticalAlign=top;strokeColor=default;">
      <mxGeometry x="1398" y="759" as="geometry" />
    </mxCell>
    <mxCell id="label118" parent="edge19" vertex="1" connectable="0" value="*" style="edgeLabel;resizable=0;html=1;align=left;verticalAlign=top;strokeColor=default;">
      <mxGeometry x="740" y="890" as="geometry" />
    </mxCell>
    <mxCell id="label119" parent="edge19" vertex="1" connectable="0" value="nodos" style="edgeLabel;resizable=0;html=1;align=left;verticalAlign=top;strokeColor=default;">
      <mxGeometry x="749" y="890" as="geometry" />
    </mxCell>
    <mxCell id="edge13" edge="1" value="" parent="1" source="node15" target="node9" style="html=1;rounded=1;edgeStyle=orthogonalEdgeStyle;dashed=0;startArrow=diamondThinstartSize=12;endArrow=openThin;endSize=12;strokeColor=#595959;exitX=1.000;exitY=0.500;exitDx=0;exitDy=0;entryX=0.000;entryY=0.500;entryDx=0;entryDy=0;">
      <mxGeometry width="50" height="50" relative="1" as="geometry">
        <Array as="points" />
      </mxGeometry>
    </mxCell>
    <mxCell id="label78" parent="edge13" vertex="1" connectable="0" value="1" style="edgeLabel;resizable=0;html=1;align=left;verticalAlign=top;strokeColor=default;">
      <mxGeometry x="3941" y="1086" as="geometry" />
    </mxCell>
    <mxCell id="label82" parent="edge13" vertex="1" connectable="0" value="1" style="edgeLabel;resizable=0;html=1;align=left;verticalAlign=top;strokeColor=default;">
      <mxGeometry x="3966" y="1086" as="geometry" />
    </mxCell>
    <mxCell id="label83" parent="edge13" vertex="1" connectable="0" value="archivo" style="edgeLabel;resizable=0;html=1;align=left;verticalAlign=top;strokeColor=default;">
      <mxGeometry x="3938" y="1106" as="geometry" />
    </mxCell>
    <mxCell id="edge18" edge="1" value="" parent="1" source="node14" target="node9" style="html=1;rounded=1;edgeStyle=orthogonalEdgeStyle;dashed=0;startArrow=diamondThinstartSize=12;endArrow=openThin;endSize=12;strokeColor=#595959;exitX=0.625;exitY=1.000;exitDx=0;exitDy=0;entryX=0.500;entryY=1.000;entryDx=0;entryDy=0;">
      <mxGeometry width="50" height="50" relative="1" as="geometry">
        <Array as="points">
          <mxPoint x="2362" y="2246" />
          <mxPoint x="4085" y="2246" />
        </Array>
      </mxGeometry>
    </mxCell>
    <mxCell id="label108" parent="edge18" vertex="1" connectable="0" value="1" style="edgeLabel;resizable=0;html=1;align=left;verticalAlign=top;strokeColor=default;">
      <mxGeometry x="2351" y="1319" as="geometry" />
    </mxCell>
    <mxCell id="label112" parent="edge18" vertex="1" connectable="0" value="1" style="edgeLabel;resizable=0;html=1;align=left;verticalAlign=top;strokeColor=default;">
      <mxGeometry x="4074" y="1376" as="geometry" />
    </mxCell>
    <mxCell id="label113" parent="edge18" vertex="1" connectable="0" value="archivo" style="edgeLabel;resizable=0;html=1;align=left;verticalAlign=top;strokeColor=default;">
      <mxGeometry x="4085" y="1295" as="geometry" />
    </mxCell>
    <mxCell id="edge5" edge="1" value="" parent="1" source="node14" target="node16" style="html=1;rounded=1;edgeStyle=orthogonalEdgeStyle;dashed=0;startArrow=diamondThinstartSize=12;endArrow=openThin;endSize=12;strokeColor=#595959;exitX=0.375;exitY=1.000;exitDx=0;exitDy=0;entryX=0.500;entryY=1.000;entryDx=0;entryDy=0;">
      <mxGeometry width="50" height="50" relative="1" as="geometry">
        <Array as="points">
          <mxPoint x="2307" y="1497" />
          <mxPoint x="520" y="1497" />
        </Array>
      </mxGeometry>
    </mxCell>
    <mxCell id="label30" parent="edge5" vertex="1" connectable="0" value="1" style="edgeLabel;resizable=0;html=1;align=left;verticalAlign=top;strokeColor=default;">
      <mxGeometry x="2296" y="1327" as="geometry" />
    </mxCell>
    <mxCell id="label34" parent="edge5" vertex="1" connectable="0" value="*" style="edgeLabel;resizable=0;html=1;align=left;verticalAlign=top;strokeColor=default;">
      <mxGeometry x="694" y="1477" as="geometry" />
    </mxCell>
    <mxCell id="label35" parent="edge5" vertex="1" connectable="0" value="aristasDatos" style="edgeLabel;resizable=0;html=1;align=left;verticalAlign=top;strokeColor=default;">
      <mxGeometry x="483" y="1497" as="geometry" />
    </mxCell>
    <mxCell id="edge11" edge="1" value="" parent="1" source="node14" target="node5" style="html=1;rounded=1;edgeStyle=orthogonalEdgeStyle;dashed=0;startArrow=diamondThinstartSize=12;endArrow=openThin;endSize=12;strokeColor=#595959;exitX=0.125;exitY=1.000;exitDx=0;exitDy=0;entryX=0.500;entryY=1.000;entryDx=0;entryDy=0;">
      <mxGeometry width="50" height="50" relative="1" as="geometry">
        <Array as="points">
          <mxPoint x="2252" y="1442" />
          <mxPoint x="749" y="1442" />
        </Array>
      </mxGeometry>
    </mxCell>
    <mxCell id="label66" parent="edge11" vertex="1" connectable="0" value="1" style="edgeLabel;resizable=0;html=1;align=left;verticalAlign=top;strokeColor=default;">
      <mxGeometry x="2241" y="1325" as="geometry" />
    </mxCell>
    <mxCell id="label70" parent="edge11" vertex="1" connectable="0" value="*" style="edgeLabel;resizable=0;html=1;align=left;verticalAlign=top;strokeColor=default;">
      <mxGeometry x="740" y="1305" as="geometry" />
    </mxCell>
    <mxCell id="label71" parent="edge11" vertex="1" connectable="0" value="lugares" style="edgeLabel;resizable=0;html=1;align=left;verticalAlign=top;strokeColor=default;">
      <mxGeometry x="749" y="1305" as="geometry" />
    </mxCell>
    <mxCell id="edge10" edge="1" value="" parent="1" source="node14" target="node7" style="html=1;rounded=1;edgeStyle=orthogonalEdgeStyle;dashed=0;startArrow=diamondThinstartSize=12;endArrow=openThin;endSize=12;strokeColor=#595959;exitX=0.875;exitY=1.000;exitDx=0;exitDy=0;entryX=0.500;entryY=1.000;entryDx=0;entryDy=0;">
      <mxGeometry width="50" height="50" relative="1" as="geometry">
        <Array as="points">
          <mxPoint x="2417" y="2236" />
          <mxPoint x="3310" y="2236" />
        </Array>
      </mxGeometry>
    </mxCell>
    <mxCell id="label60" parent="edge10" vertex="1" connectable="0" value="1" style="edgeLabel;resizable=0;html=1;align=left;verticalAlign=top;strokeColor=default;">
      <mxGeometry x="2406" y="1319" as="geometry" />
    </mxCell>
    <mxCell id="label64" parent="edge10" vertex="1" connectable="0" value="*" style="edgeLabel;resizable=0;html=1;align=left;verticalAlign=top;strokeColor=default;">
      <mxGeometry x="3300" y="1367" as="geometry" />
    </mxCell>
    <mxCell id="label65" parent="edge10" vertex="1" connectable="0" value="traficoDatos" style="edgeLabel;resizable=0;html=1;align=left;verticalAlign=top;strokeColor=default;">
      <mxGeometry x="3310" y="1367" as="geometry" />
    </mxCell>
    <mxCell id="edge3" edge="1" value="" parent="1" source="node4" target="node16" style="html=1;rounded=1;edgeStyle=orthogonalEdgeStyle;dashed=0;startArrow=diamondThinstartSize=12;endArrow=openThin;endSize=12;strokeColor=#595959;exitX=1.000;exitY=0.500;exitDx=0;exitDy=0;entryX=0.000;entryY=0.500;entryDx=0;entryDy=0;">
      <mxGeometry width="50" height="50" relative="1" as="geometry">
        <Array as="points" />
      </mxGeometry>
    </mxCell>
    <mxCell id="label18" parent="edge3" vertex="1" connectable="0" value="1" style="edgeLabel;resizable=0;html=1;align=left;verticalAlign=top;strokeColor=default;">
      <mxGeometry x="373" y="1086" as="geometry" />
    </mxCell>
    <mxCell id="label22" parent="edge3" vertex="1" connectable="0" value="*" style="edgeLabel;resizable=0;html=1;align=left;verticalAlign=top;strokeColor=default;">
      <mxGeometry x="399" y="1086" as="geometry" />
    </mxCell>
    <mxCell id="label23" parent="edge3" vertex="1" connectable="0" value="aristas" style="edgeLabel;resizable=0;html=1;align=left;verticalAlign=top;strokeColor=default;">
      <mxGeometry x="370" y="1106" as="geometry" />
    </mxCell>
    <mxCell id="edge20" edge="1" value="" parent="1" source="node8" target="node1" style="html=1;rounded=1;edgeStyle=orthogonalEdgeStyle;dashed=0;startArrow=diamondThinstartSize=12;endArrow=openThin;endSize=12;strokeColor=#595959;exitX=1.000;exitY=0.500;exitDx=0;exitDy=0;entryX=0.000;entryY=0.500;entryDx=0;entryDy=0;">
      <mxGeometry width="50" height="50" relative="1" as="geometry">
        <Array as="points" />
      </mxGeometry>
    </mxCell>
    <mxCell id="label120" parent="edge20" vertex="1" connectable="0" value="1" style="edgeLabel;resizable=0;html=1;align=left;verticalAlign=top;strokeColor=default;">
      <mxGeometry x="1267" y="1086" as="geometry" />
    </mxCell>
    <mxCell id="label124" parent="edge20" vertex="1" connectable="0" value="1" style="edgeLabel;resizable=0;html=1;align=left;verticalAlign=top;strokeColor=default;">
      <mxGeometry x="1292" y="1086" as="geometry" />
    </mxCell>
    <mxCell id="label125" parent="edge20" vertex="1" connectable="0" value="grafo" style="edgeLabel;resizable=0;html=1;align=left;verticalAlign=top;strokeColor=default;">
      <mxGeometry x="1269" y="1106" as="geometry" />
    </mxCell>
    <mxCell id="edge8" edge="1" value="" parent="1" source="node8" target="node4" style="html=1;rounded=1;edgeStyle=orthogonalEdgeStyle;dashed=0;startArrow=diamondThinstartSize=12;endArrow=openThin;endSize=12;strokeColor=#595959;exitX=0.500;exitY=0.000;exitDx=0;exitDy=0;entryX=0.750;entryY=0.000;entryDx=0;entryDy=0;">
      <mxGeometry width="50" height="50" relative="1" as="geometry">
        <Array as="points">
          <mxPoint x="1141" y="719" />
          <mxPoint x="306" y="719" />
        </Array>
      </mxGeometry>
    </mxCell>
    <mxCell id="label48" parent="edge8" vertex="1" connectable="0" value="1" style="edgeLabel;resizable=0;html=1;align=left;verticalAlign=top;strokeColor=default;">
      <mxGeometry x="1130" y="817" as="geometry" />
    </mxCell>
    <mxCell id="label52" parent="edge8" vertex="1" connectable="0" value="*" style="edgeLabel;resizable=0;html=1;align=left;verticalAlign=top;strokeColor=default;">
      <mxGeometry x="297" y="812" as="geometry" />
    </mxCell>
    <mxCell id="label53" parent="edge8" vertex="1" connectable="0" value="rutas" style="edgeLabel;resizable=0;html=1;align=left;verticalAlign=top;strokeColor=default;">
      <mxGeometry x="306" y="812" as="geometry" />
    </mxCell>
    <mxCell id="edge0" edge="1" value="" parent="1" source="node8" target="node0" style="html=1;rounded=1;edgeStyle=orthogonalEdgeStyle;dashed=0;startArrow=diamondThinstartSize=12;endArrow=openThin;endSize=12;strokeColor=#595959;exitX=0.500;exitY=1.000;exitDx=0;exitDy=0;entryX=0.500;entryY=1.000;entryDx=0;entryDy=0;">
      <mxGeometry width="50" height="50" relative="1" as="geometry">
        <Array as="points">
          <mxPoint x="1141" y="1432" />
          <mxPoint x="1873" y="1432" />
        </Array>
      </mxGeometry>
    </mxCell>
    <mxCell id="label0" parent="edge0" vertex="1" connectable="0" value="1" style="edgeLabel;resizable=0;html=1;align=left;verticalAlign=top;strokeColor=default;">
      <mxGeometry x="1130" y="1367" as="geometry" />
    </mxCell>
    <mxCell id="label4" parent="edge0" vertex="1" connectable="0" value="1" style="edgeLabel;resizable=0;html=1;align=left;verticalAlign=top;strokeColor=default;">
      <mxGeometry x="1862" y="1208" as="geometry" />
    </mxCell>
    <mxCell id="label5" parent="edge0" vertex="1" connectable="0" value="utiles" style="edgeLabel;resizable=0;html=1;align=left;verticalAlign=top;strokeColor=default;">
      <mxGeometry x="1873" y="1208" as="geometry" />
    </mxCell>
    <mxCell id="edge17" edge="1" value="" parent="1" source="node17" target="node7" style="html=1;rounded=1;edgeStyle=orthogonalEdgeStyle;dashed=0;startArrow=circlePlus;startFill=0;endArrow=none;strokeColor=#820000;exitX=0.000;exitY=0.500;exitDx=0;exitDy=0;entryX=1.000;entryY=0.500;entryDx=0;entryDy=0;">
      <mxGeometry width="50" height="50" relative="1" as="geometry">
        <Array as="points" />
      </mxGeometry>
    </mxCell>
    <mxCell id="edge14" edge="1" value="" parent="1" source="node2" target="node9" style="html=1;rounded=1;edgeStyle=orthogonalEdgeStyle;dashed=0;startArrow=diamondThinstartSize=12;endArrow=openThin;endSize=12;strokeColor=#595959;exitX=0.786;exitY=0.000;exitDx=0;exitDy=0;entryX=0.500;entryY=0.000;entryDx=0;entryDy=0;">
      <mxGeometry width="50" height="50" relative="1" as="geometry">
        <Array as="points">
          <mxPoint x="3115" y="-35" />
          <mxPoint x="4085" y="-35" />
        </Array>
      </mxGeometry>
    </mxCell>
    <mxCell id="label84" parent="edge14" vertex="1" connectable="0" value="1" style="edgeLabel;resizable=0;html=1;align=left;verticalAlign=top;strokeColor=default;">
      <mxGeometry x="3104" y="-35" as="geometry" />
    </mxCell>
    <mxCell id="label88" parent="edge14" vertex="1" connectable="0" value="1" style="edgeLabel;resizable=0;html=1;align=left;verticalAlign=top;strokeColor=default;">
      <mxGeometry x="4074" y="896" as="geometry" />
    </mxCell>
    <mxCell id="label89" parent="edge14" vertex="1" connectable="0" value="archivo" style="edgeLabel;resizable=0;html=1;align=left;verticalAlign=top;strokeColor=default;">
      <mxGeometry x="4085" y="896" as="geometry" />
    </mxCell>
    <mxCell id="edge4" edge="1" value="" parent="1" source="node2" target="node1" style="html=1;rounded=1;edgeStyle=orthogonalEdgeStyle;dashed=0;startArrow=diamondThinstartSize=12;endArrow=openThin;endSize=12;strokeColor=#595959;exitX=0.357;exitY=0.000;exitDx=0;exitDy=0;entryX=0.750;entryY=0.000;entryDx=0;entryDy=0;">
      <mxGeometry width="50" height="50" relative="1" as="geometry">
        <Array as="points">
          <mxPoint x="2974" y="-45" />
          <mxPoint x="1606" y="-45" />
        </Array>
      </mxGeometry>
    </mxCell>
    <mxCell id="label24" parent="edge4" vertex="1" connectable="0" value="1" style="edgeLabel;resizable=0;html=1;align=left;verticalAlign=top;strokeColor=default;">
      <mxGeometry x="2963" y="-40" as="geometry" />
    </mxCell>
    <mxCell id="label28" parent="edge4" vertex="1" connectable="0" value="1" style="edgeLabel;resizable=0;html=1;align=left;verticalAlign=top;strokeColor=default;">
      <mxGeometry x="1595" y="764" as="geometry" />
    </mxCell>
    <mxCell id="label29" parent="edge4" vertex="1" connectable="0" value="grafoDirigido" style="edgeLabel;resizable=0;html=1;align=left;verticalAlign=top;strokeColor=default;">
      <mxGeometry x="1606" y="764" as="geometry" />
    </mxCell>
    <mxCell id="edge1" edge="1" value="" parent="1" source="node2" target="node15" style="html=1;rounded=1;edgeStyle=orthogonalEdgeStyle;dashed=0;startArrow=diamondThinstartSize=12;endArrow=openThin;endSize=12;strokeColor=#595959;exitX=0.929;exitY=0.000;exitDx=0;exitDy=0;entryX=0.500;entryY=0.000;entryDx=0;entryDy=0;">
      <mxGeometry width="50" height="50" relative="1" as="geometry">
        <Array as="points">
          <mxPoint x="3162" y="-25" />
          <mxPoint x="3819" y="-25" />
        </Array>
      </mxGeometry>
    </mxCell>
    <mxCell id="label6" parent="edge1" vertex="1" connectable="0" value="1" style="edgeLabel;resizable=0;html=1;align=left;verticalAlign=top;strokeColor=default;">
      <mxGeometry x="3156" y="-45" as="geometry" />
    </mxCell>
    <mxCell id="label10" parent="edge1" vertex="1" connectable="0" value="1" style="edgeLabel;resizable=0;html=1;align=left;verticalAlign=top;strokeColor=default;">
      <mxGeometry x="3808" y="1040" as="geometry" />
    </mxCell>
    <mxCell id="label11" parent="edge1" vertex="1" connectable="0" value="graphiz" style="edgeLabel;resizable=0;html=1;align=left;verticalAlign=top;strokeColor=default;">
      <mxGeometry x="3819" y="1040" as="geometry" />
    </mxCell>
    <mxCell id="edge9" edge="1" value="" parent="1" source="node2" target="node14" style="html=1;rounded=1;edgeStyle=orthogonalEdgeStyle;dashed=0;startArrow=diamondThinstartSize=12;endArrow=openThin;endSize=12;strokeColor=#595959;exitX=0.071;exitY=0.000;exitDx=0;exitDy=0;entryX=0.500;entryY=0.000;entryDx=0;entryDy=0;">
      <mxGeometry width="50" height="50" relative="1" as="geometry">
        <Array as="points">
          <mxPoint x="2880" y="-25" />
          <mxPoint x="2335" y="-25" />
        </Array>
      </mxGeometry>
    </mxCell>
    <mxCell id="label54" parent="edge9" vertex="1" connectable="0" value="1" style="edgeLabel;resizable=0;html=1;align=left;verticalAlign=top;strokeColor=default;">
      <mxGeometry x="2875" y="-45" as="geometry" />
    </mxCell>
    <mxCell id="label58" parent="edge9" vertex="1" connectable="0" value="1" style="edgeLabel;resizable=0;html=1;align=left;verticalAlign=top;strokeColor=default;">
      <mxGeometry x="2323" y="872" as="geometry" />
    </mxCell>
    <mxCell id="label59" parent="edge9" vertex="1" connectable="0" value="manejoDatos" style="edgeLabel;resizable=0;html=1;align=left;verticalAlign=top;strokeColor=default;">
      <mxGeometry x="2335" y="872" as="geometry" />
    </mxCell>
    <mxCell id="edge16" edge="1" value="" parent="1" source="node2" target="node4" style="html=1;rounded=1;edgeStyle=orthogonalEdgeStyle;dashed=0;startArrow=diamondThinstartSize=12;endArrow=openThin;endSize=12;strokeColor=#595959;exitX=0.500;exitY=0.000;exitDx=0;exitDy=0;entryX=0.250;entryY=0.000;entryDx=0;entryDy=0;">
      <mxGeometry width="50" height="50" relative="1" as="geometry">
        <Array as="points">
          <mxPoint x="3021" y="-55" />
          <mxPoint x="185" y="-55" />
        </Array>
      </mxGeometry>
    </mxCell>
    <mxCell id="label96" parent="edge16" vertex="1" connectable="0" value="1" style="edgeLabel;resizable=0;html=1;align=left;verticalAlign=top;strokeColor=default;">
      <mxGeometry x="3010" y="-45" as="geometry" />
    </mxCell>
    <mxCell id="label100" parent="edge16" vertex="1" connectable="0" value="*" style="edgeLabel;resizable=0;html=1;align=left;verticalAlign=top;strokeColor=default;">
      <mxGeometry x="176" y="738" as="geometry" />
    </mxCell>
    <mxCell id="label101" parent="edge16" vertex="1" connectable="0" value="listRutas" style="edgeLabel;resizable=0;html=1;align=left;verticalAlign=top;strokeColor=default;">
      <mxGeometry x="185" y="812" as="geometry" />
    </mxCell>
    <mxCell id="edge15" edge="1" value="" parent="1" source="node2" target="node13" style="html=1;rounded=1;edgeStyle=orthogonalEdgeStyle;dashed=0;startArrow=diamondThinstartSize=12;endArrow=openThin;endSize=12;strokeColor=#595959;exitX=0.643;exitY=0.000;exitDx=0;exitDy=0;entryX=0.500;entryY=0.000;entryDx=0;entryDy=0;">
      <mxGeometry width="50" height="50" relative="1" as="geometry">
        <Array as="points">
          <mxPoint x="3068" y="-45" />
          <mxPoint x="4614" y="-45" />
        </Array>
      </mxGeometry>
    </mxCell>
    <mxCell id="label90" parent="edge15" vertex="1" connectable="0" value="1" style="edgeLabel;resizable=0;html=1;align=left;verticalAlign=top;strokeColor=default;">
      <mxGeometry x="3057" y="-40" as="geometry" />
    </mxCell>
    <mxCell id="label94" parent="edge15" vertex="1" connectable="0" value="1" style="edgeLabel;resizable=0;html=1;align=left;verticalAlign=top;strokeColor=default;">
      <mxGeometry x="4602" y="920" as="geometry" />
    </mxCell>
    <mxCell id="label95" parent="edge15" vertex="1" connectable="0" value="treeB" style="edgeLabel;resizable=0;html=1;align=left;verticalAlign=top;strokeColor=default;">
      <mxGeometry x="4614" y="920" as="geometry" />
    </mxCell>
    <mxCell id="edge12" edge="1" value="" parent="1" source="node2" target="node0" style="html=1;rounded=1;edgeStyle=orthogonalEdgeStyle;dashed=0;startArrow=diamondThinstartSize=12;endArrow=openThin;endSize=12;strokeColor=#595959;exitX=0.214;exitY=0.000;exitDx=0;exitDy=0;entryX=0.500;entryY=0.000;entryDx=0;entryDy=0;">
      <mxGeometry width="50" height="50" relative="1" as="geometry">
        <Array as="points">
          <mxPoint x="2927" y="-35" />
          <mxPoint x="1873" y="-35" />
        </Array>
      </mxGeometry>
    </mxCell>
    <mxCell id="label72" parent="edge12" vertex="1" connectable="0" value="1" style="edgeLabel;resizable=0;html=1;align=left;verticalAlign=top;strokeColor=default;">
      <mxGeometry x="2916" y="-35" as="geometry" />
    </mxCell>
    <mxCell id="label76" parent="edge12" vertex="1" connectable="0" value="1" style="edgeLabel;resizable=0;html=1;align=left;verticalAlign=top;strokeColor=default;">
      <mxGeometry x="1862" y="992" as="geometry" />
    </mxCell>
    <mxCell id="label77" parent="edge12" vertex="1" connectable="0" value="utiles" style="edgeLabel;resizable=0;html=1;align=left;verticalAlign=top;strokeColor=default;">
      <mxGeometry x="1873" y="992" as="geometry" />
    </mxCell>
    <mxCell id="edge6" edge="1" value="" parent="1" source="node13" target="node6" style="html=1;rounded=1;edgeStyle=orthogonalEdgeStyle;dashed=0;startArrow=diamondThinstartSize=12;endArrow=openThin;endSize=12;strokeColor=#595959;exitX=0.000;exitY=0.500;exitDx=0;exitDy=0;entryX=1.000;entryY=0.500;entryDx=0;entryDy=0;">
      <mxGeometry width="50" height="50" relative="1" as="geometry">
        <Array as="points" />
      </mxGeometry>
    </mxCell>
    <mxCell id="label36" parent="edge6" vertex="1" connectable="0" value="1" style="edgeLabel;resizable=0;html=1;align=left;verticalAlign=top;strokeColor=default;">
      <mxGeometry x="4471" y="1086" as="geometry" />
    </mxCell>
    <mxCell id="label40" parent="edge6" vertex="1" connectable="0" value="1" style="edgeLabel;resizable=0;html=1;align=left;verticalAlign=top;strokeColor=default;">
      <mxGeometry x="4446" y="1086" as="geometry" />
    </mxCell>
    <mxCell id="label41" parent="edge6" vertex="1" connectable="0" value="raiz" style="edgeLabel;resizable=0;html=1;align=left;verticalAlign=top;strokeColor=default;">
      <mxGeometry x="4453" y="1106" as="geometry" />
    </mxCell>
    <mxCell id="edge2" edge="1" value="" parent="1" source="node11" target="node14" style="html=1;rounded=1;edgeStyle=orthogonalEdgeStyle;dashed=0;startArrow=diamondThinstartSize=12;endArrow=openThin;endSize=12;strokeColor=#595959;exitX=0.000;exitY=0.500;exitDx=0;exitDy=0;entryX=1.000;entryY=0.500;entryDx=0;entryDy=0;">
      <mxGeometry width="50" height="50" relative="1" as="geometry">
        <Array as="points" />
      </mxGeometry>
    </mxCell>
    <mxCell id="label12" parent="edge2" vertex="1" connectable="0" value="1" style="edgeLabel;resizable=0;html=1;align=left;verticalAlign=top;strokeColor=default;">
      <mxGeometry x="2477" y="1086" as="geometry" />
    </mxCell>
    <mxCell id="label16" parent="edge2" vertex="1" connectable="0" value="1" style="edgeLabel;resizable=0;html=1;align=left;verticalAlign=top;strokeColor=default;">
      <mxGeometry x="2452" y="1086" as="geometry" />
    </mxCell>
    <mxCell id="label17" parent="edge2" vertex="1" connectable="0" value="manejoDatos" style="edgeLabel;resizable=0;html=1;align=left;verticalAlign=top;strokeColor=default;">
      <mxGeometry x="2431" y="1106" as="geometry" />
    </mxCell>
    <mxCell id="edge7" edge="1" value="" parent="1" source="node11" target="node2" style="html=1;rounded=1;edgeStyle=orthogonalEdgeStyle;dashed=0;startArrow=diamondThinstartSize=12;endArrow=openThin;endSize=12;strokeColor=#595959;exitX=1.000;exitY=0.500;exitDx=0;exitDy=0;entryX=0.000;entryY=0.500;entryDx=0;entryDy=0;">
      <mxGeometry width="50" height="50" relative="1" as="geometry">
        <Array as="points" />
      </mxGeometry>
    </mxCell>
    <mxCell id="label42" parent="edge7" vertex="1" connectable="0" value="1" style="edgeLabel;resizable=0;html=1;align=left;verticalAlign=top;strokeColor=default;">
      <mxGeometry x="2814" y="1086" as="geometry" />
    </mxCell>
    <mxCell id="label46" parent="edge7" vertex="1" connectable="0" value="1" style="edgeLabel;resizable=0;html=1;align=left;verticalAlign=top;strokeColor=default;">
      <mxGeometry x="2839" y="1086" as="geometry" />
    </mxCell>
    <mxCell id="label47" parent="edge7" vertex="1" connectable="0" value="travelGt" style="edgeLabel;resizable=0;html=1;align=left;verticalAlign=top;strokeColor=default;">
      <mxGeometry x="2810" y="1106" as="geometry" />
    </mxCell>
  </root>
</mxGraphModel>